<mxfile host="app.diagrams.net" modified="2023-05-15T20:32:04.828Z" agent="Mozilla/5.0 (Windows NT 10.0; Win64; x64) AppleWebKit/537.36 (KHTML, like Gecko) Chrome/113.0.0.0 Safari/537.36" etag="WG5ZJr2UnmNFnptn8UTi" version="21.3.2" type="github">
  <diagram name="Pagina-1" id="mVMRGhxlT3Mc3romLue4">
    <mxGraphModel dx="2278" dy="2420" grid="1" gridSize="10" guides="1" tooltips="1" connect="1" arrows="1" fold="1" page="1" pageScale="1" pageWidth="827" pageHeight="1169" background="#ffffff" math="0" shadow="0">
      <root>
        <mxCell id="0" />
        <mxCell id="1" parent="0" />
        <mxCell id="PIYxGtumyjxavmhCKYst-17" style="edgeStyle=orthogonalEdgeStyle;rounded=0;orthogonalLoop=1;jettySize=auto;html=1;exitX=0.5;exitY=1;exitDx=0;exitDy=0;labelBackgroundColor=#FFFFFF;fontStyle=3" parent="1" source="PIYxGtumyjxavmhCKYst-2" edge="1">
          <mxGeometry relative="1" as="geometry">
            <mxPoint x="178.79999999999995" y="-49.60000000000002" as="targetPoint" />
          </mxGeometry>
        </mxCell>
        <mxCell id="PIYxGtumyjxavmhCKYst-18" value="1...N" style="edgeStyle=orthogonalEdgeStyle;rounded=0;orthogonalLoop=1;jettySize=auto;html=1;exitX=0.5;exitY=1;exitDx=0;exitDy=0;entryX=0.5;entryY=0;entryDx=0;entryDy=0;endArrow=none;endFill=0;labelBackgroundColor=#FFFFFF;fontStyle=3" parent="1" source="PIYxGtumyjxavmhCKYst-2" target="PIYxGtumyjxavmhCKYst-8" edge="1">
          <mxGeometry relative="1" as="geometry">
            <Array as="points" />
          </mxGeometry>
        </mxCell>
        <mxCell id="PIYxGtumyjxavmhCKYst-2" value="Utente" style="whiteSpace=wrap;html=1;align=center;fontSize=12;labelBackgroundColor=#FFFFFF;fontStyle=3" parent="1" vertex="1">
          <mxGeometry x="129" y="-90" width="100" height="40" as="geometry" />
        </mxCell>
        <mxCell id="PIYxGtumyjxavmhCKYst-3" value="Prodotto" style="whiteSpace=wrap;html=1;align=center;fontSize=12;labelBackgroundColor=#FFFFFF;fontStyle=3" parent="1" vertex="1">
          <mxGeometry x="129" y="70" width="100" height="40" as="geometry" />
        </mxCell>
        <mxCell id="PIYxGtumyjxavmhCKYst-4" value="Fornitore" style="whiteSpace=wrap;html=1;align=center;fontSize=12;labelBackgroundColor=#FFFFFF;fontStyle=3" parent="1" vertex="1">
          <mxGeometry x="129" y="230" width="100" height="40" as="geometry" />
        </mxCell>
        <mxCell id="PIYxGtumyjxavmhCKYst-6" value="Fascia di spesa" style="whiteSpace=wrap;html=1;align=center;fontSize=12;labelBackgroundColor=#FFFFFF;fontStyle=3" parent="1" vertex="1">
          <mxGeometry x="419" y="230" width="100" height="40" as="geometry" />
        </mxCell>
        <mxCell id="PIYxGtumyjxavmhCKYst-7" value="Ordine" style="whiteSpace=wrap;html=1;align=center;fontSize=12;labelBackgroundColor=#FFFFFF;fontStyle=3" parent="1" vertex="1">
          <mxGeometry x="419" y="-90" width="100" height="40" as="geometry" />
        </mxCell>
        <mxCell id="PIYxGtumyjxavmhCKYst-8" value="ha visualizzato" style="shape=rhombus;perimeter=rhombusPerimeter;whiteSpace=wrap;html=1;align=center;fontSize=12;labelBackgroundColor=#FFFFFF;fontStyle=3" parent="1" vertex="1">
          <mxGeometry x="154" y="-10" width="50" height="40" as="geometry" />
        </mxCell>
        <mxCell id="PIYxGtumyjxavmhCKYst-9" value="crea" style="shape=rhombus;perimeter=rhombusPerimeter;whiteSpace=wrap;html=1;align=center;fontSize=12;labelBackgroundColor=#FFFFFF;fontStyle=3" parent="1" vertex="1">
          <mxGeometry x="299" y="-90" width="50" height="40" as="geometry" />
        </mxCell>
        <mxCell id="PIYxGtumyjxavmhCKYst-10" value="vende" style="shape=rhombus;perimeter=rhombusPerimeter;whiteSpace=wrap;html=1;align=center;fontSize=12;labelBackgroundColor=#FFFFFF;fontStyle=3" parent="1" vertex="1">
          <mxGeometry x="154" y="150" width="50" height="40" as="geometry" />
        </mxCell>
        <mxCell id="PIYxGtumyjxavmhCKYst-12" value="1...N" style="line;strokeWidth=1;rotatable=0;dashed=0;labelPosition=center;align=center;verticalAlign=middle;spacingTop=0;spacingLeft=6;points=[];portConstraint=eastwest;verticalLabelPosition=middle;labelBackgroundColor=#FFFFFF;fontStyle=3" parent="1" vertex="1">
          <mxGeometry x="229" y="-75" width="70" height="10" as="geometry" />
        </mxCell>
        <mxCell id="PIYxGtumyjxavmhCKYst-13" value="1...1" style="line;strokeWidth=1;rotatable=0;dashed=0;labelPosition=center;align=center;verticalAlign=middle;spacingTop=0;spacingLeft=6;points=[];portConstraint=eastwest;verticalLabelPosition=middle;labelBackgroundColor=#FFFFFF;fontStyle=3" parent="1" vertex="1">
          <mxGeometry x="348" y="-75" width="70" height="10" as="geometry" />
        </mxCell>
        <mxCell id="PIYxGtumyjxavmhCKYst-19" style="edgeStyle=orthogonalEdgeStyle;rounded=0;orthogonalLoop=1;jettySize=auto;html=1;exitX=0.5;exitY=1;exitDx=0;exitDy=0;entryX=0.5;entryY=0;entryDx=0;entryDy=0;endArrow=none;endFill=0;labelBackgroundColor=#FFFFFF;fontStyle=3" parent="1" edge="1">
          <mxGeometry relative="1" as="geometry">
            <mxPoint x="178.89999999999998" y="30" as="sourcePoint" />
            <mxPoint x="178.89999999999998" y="70" as="targetPoint" />
            <Array as="points">
              <mxPoint x="178.89999999999998" y="40" />
              <mxPoint x="178.89999999999998" y="40" />
            </Array>
          </mxGeometry>
        </mxCell>
        <mxCell id="e78Rjk-EZabSFZOPix0m-12" value="1...N" style="edgeLabel;html=1;align=center;verticalAlign=middle;resizable=0;points=[];labelBackgroundColor=#FFFFFF;fontStyle=3" parent="PIYxGtumyjxavmhCKYst-19" vertex="1" connectable="0">
          <mxGeometry x="-0.2584" y="1" relative="1" as="geometry">
            <mxPoint as="offset" />
          </mxGeometry>
        </mxCell>
        <mxCell id="PIYxGtumyjxavmhCKYst-20" style="edgeStyle=orthogonalEdgeStyle;rounded=0;orthogonalLoop=1;jettySize=auto;html=1;exitX=0.5;exitY=1;exitDx=0;exitDy=0;entryX=0.5;entryY=0;entryDx=0;entryDy=0;endArrow=none;endFill=0;labelBackgroundColor=#FFFFFF;fontStyle=3" parent="1" edge="1">
          <mxGeometry relative="1" as="geometry">
            <mxPoint x="178.84000000000003" y="110" as="sourcePoint" />
            <mxPoint x="178.84000000000003" y="150" as="targetPoint" />
            <Array as="points">
              <mxPoint x="178.84000000000003" y="120" />
              <mxPoint x="178.84000000000003" y="120" />
            </Array>
          </mxGeometry>
        </mxCell>
        <mxCell id="e78Rjk-EZabSFZOPix0m-13" value="1...N" style="edgeLabel;html=1;align=center;verticalAlign=middle;resizable=0;points=[];labelBackgroundColor=#FFFFFF;fontStyle=3" parent="PIYxGtumyjxavmhCKYst-20" vertex="1" connectable="0">
          <mxGeometry x="0.2189" relative="1" as="geometry">
            <mxPoint as="offset" />
          </mxGeometry>
        </mxCell>
        <mxCell id="0Rq2GvU38A9RxJDCwd3Y-1" value="contiene" style="shape=rhombus;perimeter=rhombusPerimeter;whiteSpace=wrap;html=1;align=center;fontSize=12;labelBackgroundColor=#FFFFFF;fontStyle=3" parent="1" vertex="1">
          <mxGeometry x="444" y="69.5" width="50" height="40" as="geometry" />
        </mxCell>
        <mxCell id="0Rq2GvU38A9RxJDCwd3Y-2" style="edgeStyle=orthogonalEdgeStyle;rounded=0;orthogonalLoop=1;jettySize=auto;html=1;endArrow=none;endFill=0;labelBackgroundColor=#FFFFFF;fontStyle=3" parent="1" edge="1">
          <mxGeometry relative="1" as="geometry">
            <mxPoint x="468.71000000000004" y="-50" as="sourcePoint" />
            <mxPoint x="468.71000000000004" y="70" as="targetPoint" />
            <Array as="points">
              <mxPoint x="468.71000000000004" y="20" />
            </Array>
          </mxGeometry>
        </mxCell>
        <mxCell id="e78Rjk-EZabSFZOPix0m-14" value="1...N" style="edgeLabel;html=1;align=center;verticalAlign=middle;resizable=0;points=[];labelBackgroundColor=#FFFFFF;fontStyle=3" parent="0Rq2GvU38A9RxJDCwd3Y-2" vertex="1" connectable="0">
          <mxGeometry x="-0.3667" y="1" relative="1" as="geometry">
            <mxPoint x="-1" y="22" as="offset" />
          </mxGeometry>
        </mxCell>
        <mxCell id="VuH1P2dGyrRGzV6cBEOp-100" style="edgeStyle=orthogonalEdgeStyle;rounded=0;orthogonalLoop=1;jettySize=auto;html=1;entryX=0;entryY=0.5;entryDx=0;entryDy=0;endArrow=none;endFill=0;labelBackgroundColor=#FFFFFF;fontStyle=3" edge="1" parent="1" source="0Rq2GvU38A9RxJDCwd3Y-4" target="0Rq2GvU38A9RxJDCwd3Y-1">
          <mxGeometry relative="1" as="geometry">
            <Array as="points">
              <mxPoint x="420" y="90" />
              <mxPoint x="420" y="90" />
            </Array>
          </mxGeometry>
        </mxCell>
        <mxCell id="0Rq2GvU38A9RxJDCwd3Y-4" value="1...N" style="line;strokeWidth=1;rotatable=0;dashed=0;labelPosition=center;align=center;verticalAlign=middle;spacingTop=0;spacingLeft=6;points=[];portConstraint=eastwest;verticalLabelPosition=middle;labelBackgroundColor=#FFFFFF;fontStyle=3" parent="1" vertex="1">
          <mxGeometry x="230" y="84.5" width="199" height="10" as="geometry" />
        </mxCell>
        <mxCell id="0Rq2GvU38A9RxJDCwd3Y-5" value="definisce" style="shape=rhombus;perimeter=rhombusPerimeter;whiteSpace=wrap;html=1;align=center;fontSize=12;labelBackgroundColor=#FFFFFF;fontStyle=3" parent="1" vertex="1">
          <mxGeometry x="298" y="230" width="50" height="40" as="geometry" />
        </mxCell>
        <mxCell id="0Rq2GvU38A9RxJDCwd3Y-6" value="1...N" style="line;strokeWidth=1;rotatable=0;dashed=0;labelPosition=center;align=center;verticalAlign=middle;spacingTop=0;spacingLeft=6;points=[];portConstraint=eastwest;verticalLabelPosition=middle;labelBackgroundColor=#FFFFFF;fontStyle=3" parent="1" vertex="1">
          <mxGeometry x="229" y="245" width="69" height="10" as="geometry" />
        </mxCell>
        <mxCell id="0Rq2GvU38A9RxJDCwd3Y-7" value="1...1" style="line;strokeWidth=1;rotatable=0;dashed=0;labelPosition=center;align=center;verticalAlign=middle;spacingTop=0;spacingLeft=6;points=[];portConstraint=eastwest;verticalLabelPosition=middle;labelBackgroundColor=#FFFFFF;fontStyle=3" parent="1" vertex="1">
          <mxGeometry x="348" y="245" width="71" height="10" as="geometry" />
        </mxCell>
        <mxCell id="e78Rjk-EZabSFZOPix0m-7" style="edgeStyle=orthogonalEdgeStyle;rounded=0;orthogonalLoop=1;jettySize=auto;html=1;exitX=0.5;exitY=1;exitDx=0;exitDy=0;labelBackgroundColor=#FFFFFF;fontStyle=3" parent="1" source="e78Rjk-EZabSFZOPix0m-8" edge="1">
          <mxGeometry relative="1" as="geometry">
            <mxPoint x="-110.20000000000005" y="109.89999999999998" as="targetPoint" />
          </mxGeometry>
        </mxCell>
        <mxCell id="e78Rjk-EZabSFZOPix0m-8" value="Categoria" style="whiteSpace=wrap;html=1;align=center;fontSize=12;labelBackgroundColor=#FFFFFF;fontStyle=3" parent="1" vertex="1">
          <mxGeometry x="-160" y="69.5" width="100" height="40" as="geometry" />
        </mxCell>
        <mxCell id="e78Rjk-EZabSFZOPix0m-9" value="" style="shape=rhombus;perimeter=rhombusPerimeter;whiteSpace=wrap;html=1;align=center;fontSize=12;fontStyle=3" parent="1" vertex="1">
          <mxGeometry x="-38.5" y="1224" width="50" height="40" as="geometry" />
        </mxCell>
        <mxCell id="e78Rjk-EZabSFZOPix0m-10" value="1...N" style="line;strokeWidth=1;rotatable=0;dashed=0;labelPosition=center;align=center;verticalAlign=middle;spacingTop=0;spacingLeft=6;points=[];portConstraint=eastwest;verticalLabelPosition=middle;fontStyle=3" parent="1" vertex="1">
          <mxGeometry x="-110" y="1239" width="71.5" height="10" as="geometry" />
        </mxCell>
        <mxCell id="e78Rjk-EZabSFZOPix0m-11" value="1...1" style="line;strokeWidth=1;rotatable=0;dashed=0;labelPosition=center;align=center;verticalAlign=middle;spacingTop=0;spacingLeft=6;points=[];portConstraint=eastwest;verticalLabelPosition=middle;fontStyle=3" parent="1" vertex="1">
          <mxGeometry x="10.5" y="1239" width="70" height="10" as="geometry" />
        </mxCell>
        <mxCell id="VuH1P2dGyrRGzV6cBEOp-1" value="Utente-Prodotto" style="shape=table;startSize=30;container=1;collapsible=1;childLayout=tableLayout;fixedRows=1;rowLines=0;fontStyle=3;align=center;resizeLast=1;html=1;" vertex="1" parent="1">
          <mxGeometry x="79.5" y="820" width="180" height="90" as="geometry" />
        </mxCell>
        <mxCell id="VuH1P2dGyrRGzV6cBEOp-2" value="" style="shape=tableRow;horizontal=0;startSize=0;swimlaneHead=0;swimlaneBody=0;fillColor=none;collapsible=0;dropTarget=0;points=[[0,0.5],[1,0.5]];portConstraint=eastwest;top=0;left=0;right=0;bottom=1;fontStyle=3" vertex="1" parent="VuH1P2dGyrRGzV6cBEOp-1">
          <mxGeometry y="30" width="180" height="30" as="geometry" />
        </mxCell>
        <mxCell id="VuH1P2dGyrRGzV6cBEOp-3" value="PK" style="shape=partialRectangle;connectable=0;fillColor=none;top=0;left=0;bottom=0;right=0;fontStyle=5;overflow=hidden;whiteSpace=wrap;html=1;" vertex="1" parent="VuH1P2dGyrRGzV6cBEOp-2">
          <mxGeometry width="30" height="30" as="geometry">
            <mxRectangle width="30" height="30" as="alternateBounds" />
          </mxGeometry>
        </mxCell>
        <mxCell id="VuH1P2dGyrRGzV6cBEOp-4" value="ID_Utente" style="shape=partialRectangle;connectable=0;fillColor=none;top=0;left=0;bottom=0;right=0;align=left;spacingLeft=6;fontStyle=5;overflow=hidden;whiteSpace=wrap;html=1;" vertex="1" parent="VuH1P2dGyrRGzV6cBEOp-2">
          <mxGeometry x="30" width="150" height="30" as="geometry">
            <mxRectangle width="150" height="30" as="alternateBounds" />
          </mxGeometry>
        </mxCell>
        <mxCell id="VuH1P2dGyrRGzV6cBEOp-5" value="" style="shape=tableRow;horizontal=0;startSize=0;swimlaneHead=0;swimlaneBody=0;fillColor=none;collapsible=0;dropTarget=0;points=[[0,0.5],[1,0.5]];portConstraint=eastwest;top=0;left=0;right=0;bottom=0;fontStyle=3" vertex="1" parent="VuH1P2dGyrRGzV6cBEOp-1">
          <mxGeometry y="60" width="180" height="30" as="geometry" />
        </mxCell>
        <mxCell id="VuH1P2dGyrRGzV6cBEOp-6" value="PK" style="shape=partialRectangle;connectable=0;fillColor=none;top=0;left=0;bottom=0;right=0;editable=1;overflow=hidden;whiteSpace=wrap;html=1;fontStyle=5" vertex="1" parent="VuH1P2dGyrRGzV6cBEOp-5">
          <mxGeometry width="30" height="30" as="geometry">
            <mxRectangle width="30" height="30" as="alternateBounds" />
          </mxGeometry>
        </mxCell>
        <mxCell id="VuH1P2dGyrRGzV6cBEOp-7" value="ID_Utente" style="shape=partialRectangle;connectable=0;fillColor=none;top=0;left=0;bottom=0;right=0;align=left;spacingLeft=6;overflow=hidden;whiteSpace=wrap;html=1;fontStyle=5" vertex="1" parent="VuH1P2dGyrRGzV6cBEOp-5">
          <mxGeometry x="30" width="150" height="30" as="geometry">
            <mxRectangle width="150" height="30" as="alternateBounds" />
          </mxGeometry>
        </mxCell>
        <mxCell id="VuH1P2dGyrRGzV6cBEOp-28" value="Prodotto" style="shape=table;startSize=30;container=1;collapsible=1;childLayout=tableLayout;fixedRows=1;rowLines=0;fontStyle=3;align=center;resizeLast=1;html=1;" vertex="1" parent="1">
          <mxGeometry x="80.5" y="1120" width="180" height="181" as="geometry" />
        </mxCell>
        <mxCell id="VuH1P2dGyrRGzV6cBEOp-29" value="" style="shape=tableRow;horizontal=0;startSize=0;swimlaneHead=0;swimlaneBody=0;fillColor=none;collapsible=0;dropTarget=0;points=[[0,0.5],[1,0.5]];portConstraint=eastwest;top=0;left=0;right=0;bottom=1;fontStyle=3" vertex="1" parent="VuH1P2dGyrRGzV6cBEOp-28">
          <mxGeometry y="30" width="180" height="31" as="geometry" />
        </mxCell>
        <mxCell id="VuH1P2dGyrRGzV6cBEOp-30" value="PK" style="shape=partialRectangle;connectable=0;fillColor=none;top=0;left=0;bottom=0;right=0;fontStyle=3;overflow=hidden;whiteSpace=wrap;html=1;" vertex="1" parent="VuH1P2dGyrRGzV6cBEOp-29">
          <mxGeometry width="30" height="31" as="geometry">
            <mxRectangle width="30" height="31" as="alternateBounds" />
          </mxGeometry>
        </mxCell>
        <mxCell id="VuH1P2dGyrRGzV6cBEOp-31" value="ID" style="shape=partialRectangle;connectable=0;fillColor=none;top=0;left=0;bottom=0;right=0;align=left;spacingLeft=6;fontStyle=7;overflow=hidden;whiteSpace=wrap;html=1;" vertex="1" parent="VuH1P2dGyrRGzV6cBEOp-29">
          <mxGeometry x="30" width="150" height="31" as="geometry">
            <mxRectangle width="150" height="31" as="alternateBounds" />
          </mxGeometry>
        </mxCell>
        <mxCell id="VuH1P2dGyrRGzV6cBEOp-32" value="" style="shape=tableRow;horizontal=0;startSize=0;swimlaneHead=0;swimlaneBody=0;fillColor=none;collapsible=0;dropTarget=0;points=[[0,0.5],[1,0.5]];portConstraint=eastwest;top=0;left=0;right=0;bottom=0;fontStyle=3" vertex="1" parent="VuH1P2dGyrRGzV6cBEOp-28">
          <mxGeometry y="61" width="180" height="30" as="geometry" />
        </mxCell>
        <mxCell id="VuH1P2dGyrRGzV6cBEOp-33" value="" style="shape=partialRectangle;connectable=0;fillColor=none;top=0;left=0;bottom=0;right=0;editable=1;overflow=hidden;whiteSpace=wrap;html=1;fontStyle=3" vertex="1" parent="VuH1P2dGyrRGzV6cBEOp-32">
          <mxGeometry width="30" height="30" as="geometry">
            <mxRectangle width="30" height="30" as="alternateBounds" />
          </mxGeometry>
        </mxCell>
        <mxCell id="VuH1P2dGyrRGzV6cBEOp-34" value="Nome" style="shape=partialRectangle;connectable=0;fillColor=none;top=0;left=0;bottom=0;right=0;align=left;spacingLeft=6;overflow=hidden;whiteSpace=wrap;html=1;fontStyle=3" vertex="1" parent="VuH1P2dGyrRGzV6cBEOp-32">
          <mxGeometry x="30" width="150" height="30" as="geometry">
            <mxRectangle width="150" height="30" as="alternateBounds" />
          </mxGeometry>
        </mxCell>
        <mxCell id="VuH1P2dGyrRGzV6cBEOp-35" value="" style="shape=tableRow;horizontal=0;startSize=0;swimlaneHead=0;swimlaneBody=0;fillColor=none;collapsible=0;dropTarget=0;points=[[0,0.5],[1,0.5]];portConstraint=eastwest;top=0;left=0;right=0;bottom=0;fontStyle=3" vertex="1" parent="VuH1P2dGyrRGzV6cBEOp-28">
          <mxGeometry y="91" width="180" height="30" as="geometry" />
        </mxCell>
        <mxCell id="VuH1P2dGyrRGzV6cBEOp-36" value="" style="shape=partialRectangle;connectable=0;fillColor=none;top=0;left=0;bottom=0;right=0;editable=1;overflow=hidden;whiteSpace=wrap;html=1;fontStyle=3" vertex="1" parent="VuH1P2dGyrRGzV6cBEOp-35">
          <mxGeometry width="30" height="30" as="geometry">
            <mxRectangle width="30" height="30" as="alternateBounds" />
          </mxGeometry>
        </mxCell>
        <mxCell id="VuH1P2dGyrRGzV6cBEOp-37" value="Descrizione" style="shape=partialRectangle;connectable=0;fillColor=none;top=0;left=0;bottom=0;right=0;align=left;spacingLeft=6;overflow=hidden;whiteSpace=wrap;html=1;fontStyle=3" vertex="1" parent="VuH1P2dGyrRGzV6cBEOp-35">
          <mxGeometry x="30" width="150" height="30" as="geometry">
            <mxRectangle width="150" height="30" as="alternateBounds" />
          </mxGeometry>
        </mxCell>
        <mxCell id="VuH1P2dGyrRGzV6cBEOp-300" value="" style="shape=tableRow;horizontal=0;startSize=0;swimlaneHead=0;swimlaneBody=0;fillColor=none;collapsible=0;dropTarget=0;points=[[0,0.5],[1,0.5]];portConstraint=eastwest;top=0;left=0;right=0;bottom=0;fontStyle=3" vertex="1" parent="VuH1P2dGyrRGzV6cBEOp-28">
          <mxGeometry y="121" width="180" height="30" as="geometry" />
        </mxCell>
        <mxCell id="VuH1P2dGyrRGzV6cBEOp-301" value="" style="shape=partialRectangle;connectable=0;fillColor=none;top=0;left=0;bottom=0;right=0;editable=1;overflow=hidden;fontStyle=3" vertex="1" parent="VuH1P2dGyrRGzV6cBEOp-300">
          <mxGeometry width="30" height="30" as="geometry">
            <mxRectangle width="30" height="30" as="alternateBounds" />
          </mxGeometry>
        </mxCell>
        <mxCell id="VuH1P2dGyrRGzV6cBEOp-302" value="Foto" style="shape=partialRectangle;connectable=0;fillColor=none;top=0;left=0;bottom=0;right=0;align=left;spacingLeft=6;overflow=hidden;fontStyle=3" vertex="1" parent="VuH1P2dGyrRGzV6cBEOp-300">
          <mxGeometry x="30" width="150" height="30" as="geometry">
            <mxRectangle width="150" height="30" as="alternateBounds" />
          </mxGeometry>
        </mxCell>
        <mxCell id="VuH1P2dGyrRGzV6cBEOp-38" value="" style="shape=tableRow;horizontal=0;startSize=0;swimlaneHead=0;swimlaneBody=0;fillColor=none;collapsible=0;dropTarget=0;points=[[0,0.5],[1,0.5]];portConstraint=eastwest;top=0;left=0;right=0;bottom=0;fontStyle=3" vertex="1" parent="VuH1P2dGyrRGzV6cBEOp-28">
          <mxGeometry y="151" width="180" height="30" as="geometry" />
        </mxCell>
        <mxCell id="VuH1P2dGyrRGzV6cBEOp-39" value="FK" style="shape=partialRectangle;connectable=0;fillColor=none;top=0;left=0;bottom=0;right=0;editable=1;overflow=hidden;whiteSpace=wrap;html=1;fontStyle=3" vertex="1" parent="VuH1P2dGyrRGzV6cBEOp-38">
          <mxGeometry width="30" height="30" as="geometry">
            <mxRectangle width="30" height="30" as="alternateBounds" />
          </mxGeometry>
        </mxCell>
        <mxCell id="VuH1P2dGyrRGzV6cBEOp-40" value="Categoria" style="shape=partialRectangle;connectable=0;fillColor=none;top=0;left=0;bottom=0;right=0;align=left;spacingLeft=6;overflow=hidden;whiteSpace=wrap;html=1;fontStyle=3" vertex="1" parent="VuH1P2dGyrRGzV6cBEOp-38">
          <mxGeometry x="30" width="150" height="30" as="geometry">
            <mxRectangle width="150" height="30" as="alternateBounds" />
          </mxGeometry>
        </mxCell>
        <mxCell id="VuH1P2dGyrRGzV6cBEOp-54" value="Prodotto-Fornitore" style="shape=table;startSize=30;container=1;collapsible=1;childLayout=tableLayout;fixedRows=1;rowLines=0;fontStyle=3;align=center;resizeLast=1;html=1;" vertex="1" parent="1">
          <mxGeometry x="79.5" y="1480" width="180" height="90" as="geometry" />
        </mxCell>
        <mxCell id="VuH1P2dGyrRGzV6cBEOp-55" value="" style="shape=tableRow;horizontal=0;startSize=0;swimlaneHead=0;swimlaneBody=0;fillColor=none;collapsible=0;dropTarget=0;points=[[0,0.5],[1,0.5]];portConstraint=eastwest;top=0;left=0;right=0;bottom=1;fontStyle=3" vertex="1" parent="VuH1P2dGyrRGzV6cBEOp-54">
          <mxGeometry y="30" width="180" height="30" as="geometry" />
        </mxCell>
        <mxCell id="VuH1P2dGyrRGzV6cBEOp-56" value="PK" style="shape=partialRectangle;connectable=0;fillColor=none;top=0;left=0;bottom=0;right=0;fontStyle=5;overflow=hidden;whiteSpace=wrap;html=1;" vertex="1" parent="VuH1P2dGyrRGzV6cBEOp-55">
          <mxGeometry width="30" height="30" as="geometry">
            <mxRectangle width="30" height="30" as="alternateBounds" />
          </mxGeometry>
        </mxCell>
        <mxCell id="VuH1P2dGyrRGzV6cBEOp-57" value="ID_Prodotto" style="shape=partialRectangle;connectable=0;fillColor=none;top=0;left=0;bottom=0;right=0;align=left;spacingLeft=6;fontStyle=5;overflow=hidden;whiteSpace=wrap;html=1;" vertex="1" parent="VuH1P2dGyrRGzV6cBEOp-55">
          <mxGeometry x="30" width="150" height="30" as="geometry">
            <mxRectangle width="150" height="30" as="alternateBounds" />
          </mxGeometry>
        </mxCell>
        <mxCell id="VuH1P2dGyrRGzV6cBEOp-58" value="" style="shape=tableRow;horizontal=0;startSize=0;swimlaneHead=0;swimlaneBody=0;fillColor=none;collapsible=0;dropTarget=0;points=[[0,0.5],[1,0.5]];portConstraint=eastwest;top=0;left=0;right=0;bottom=0;fontStyle=3" vertex="1" parent="VuH1P2dGyrRGzV6cBEOp-54">
          <mxGeometry y="60" width="180" height="30" as="geometry" />
        </mxCell>
        <mxCell id="VuH1P2dGyrRGzV6cBEOp-59" value="PK" style="shape=partialRectangle;connectable=0;fillColor=none;top=0;left=0;bottom=0;right=0;editable=1;overflow=hidden;whiteSpace=wrap;html=1;fontStyle=5" vertex="1" parent="VuH1P2dGyrRGzV6cBEOp-58">
          <mxGeometry width="30" height="30" as="geometry">
            <mxRectangle width="30" height="30" as="alternateBounds" />
          </mxGeometry>
        </mxCell>
        <mxCell id="VuH1P2dGyrRGzV6cBEOp-60" value="ID_Fornitore" style="shape=partialRectangle;connectable=0;fillColor=none;top=0;left=0;bottom=0;right=0;align=left;spacingLeft=6;overflow=hidden;whiteSpace=wrap;html=1;fontStyle=5" vertex="1" parent="VuH1P2dGyrRGzV6cBEOp-58">
          <mxGeometry x="30" width="150" height="30" as="geometry">
            <mxRectangle width="150" height="30" as="alternateBounds" />
          </mxGeometry>
        </mxCell>
        <mxCell id="VuH1P2dGyrRGzV6cBEOp-80" value="Categoria" style="shape=table;startSize=30;container=1;collapsible=1;childLayout=tableLayout;fixedRows=1;rowLines=0;fontStyle=3;align=center;resizeLast=1;html=1;" vertex="1" parent="1">
          <mxGeometry x="-330" y="1204" width="220" height="60" as="geometry" />
        </mxCell>
        <mxCell id="VuH1P2dGyrRGzV6cBEOp-81" value="" style="shape=tableRow;horizontal=0;startSize=0;swimlaneHead=0;swimlaneBody=0;fillColor=none;collapsible=0;dropTarget=0;points=[[0,0.5],[1,0.5]];portConstraint=eastwest;top=0;left=0;right=0;bottom=1;fontStyle=3" vertex="1" parent="VuH1P2dGyrRGzV6cBEOp-80">
          <mxGeometry y="30" width="220" height="30" as="geometry" />
        </mxCell>
        <mxCell id="VuH1P2dGyrRGzV6cBEOp-82" value="PK" style="shape=partialRectangle;connectable=0;fillColor=none;top=0;left=0;bottom=0;right=0;fontStyle=3;overflow=hidden;whiteSpace=wrap;html=1;" vertex="1" parent="VuH1P2dGyrRGzV6cBEOp-81">
          <mxGeometry width="30" height="30" as="geometry">
            <mxRectangle width="30" height="30" as="alternateBounds" />
          </mxGeometry>
        </mxCell>
        <mxCell id="VuH1P2dGyrRGzV6cBEOp-83" value="ID" style="shape=partialRectangle;connectable=0;fillColor=none;top=0;left=0;bottom=0;right=0;align=left;spacingLeft=6;fontStyle=7;overflow=hidden;whiteSpace=wrap;html=1;" vertex="1" parent="VuH1P2dGyrRGzV6cBEOp-81">
          <mxGeometry x="30" width="190" height="30" as="geometry">
            <mxRectangle width="190" height="30" as="alternateBounds" />
          </mxGeometry>
        </mxCell>
        <mxCell id="VuH1P2dGyrRGzV6cBEOp-102" style="edgeStyle=orthogonalEdgeStyle;rounded=0;orthogonalLoop=1;jettySize=auto;html=1;exitX=0.5;exitY=1;exitDx=0;exitDy=0;fontStyle=3" edge="1" parent="1">
          <mxGeometry relative="1" as="geometry">
            <mxPoint x="170.29999999999995" y="1010.4" as="targetPoint" />
            <mxPoint x="170.5" y="1010" as="sourcePoint" />
          </mxGeometry>
        </mxCell>
        <mxCell id="VuH1P2dGyrRGzV6cBEOp-103" value="1...N" style="edgeStyle=orthogonalEdgeStyle;rounded=0;orthogonalLoop=1;jettySize=auto;html=1;exitX=0.505;exitY=1.013;exitDx=0;exitDy=0;entryX=0.5;entryY=0;entryDx=0;entryDy=0;endArrow=none;endFill=0;exitPerimeter=0;fontStyle=3" edge="1" parent="1" target="VuH1P2dGyrRGzV6cBEOp-104" source="VuH1P2dGyrRGzV6cBEOp-5">
          <mxGeometry relative="1" as="geometry">
            <Array as="points" />
            <mxPoint x="169.86000000000013" y="971.0500000000002" as="sourcePoint" />
          </mxGeometry>
        </mxCell>
        <mxCell id="VuH1P2dGyrRGzV6cBEOp-104" value="" style="shape=rhombus;perimeter=rhombusPerimeter;whiteSpace=wrap;html=1;align=center;fontSize=12;fontStyle=3" vertex="1" parent="1">
          <mxGeometry x="145.5" y="1000" width="50" height="40" as="geometry" />
        </mxCell>
        <mxCell id="VuH1P2dGyrRGzV6cBEOp-105" style="edgeStyle=orthogonalEdgeStyle;rounded=0;orthogonalLoop=1;jettySize=auto;html=1;exitX=0.5;exitY=1;exitDx=0;exitDy=0;entryX=0.5;entryY=0;entryDx=0;entryDy=0;endArrow=none;endFill=0;fontStyle=3" edge="1" parent="1" source="VuH1P2dGyrRGzV6cBEOp-104" target="VuH1P2dGyrRGzV6cBEOp-28">
          <mxGeometry relative="1" as="geometry">
            <mxPoint x="170.39999999999998" y="1090" as="sourcePoint" />
            <mxPoint x="170.39999999999998" y="1130" as="targetPoint" />
            <Array as="points" />
          </mxGeometry>
        </mxCell>
        <mxCell id="VuH1P2dGyrRGzV6cBEOp-106" value="1...1" style="edgeLabel;html=1;align=center;verticalAlign=middle;resizable=0;points=[];fontStyle=3" vertex="1" connectable="0" parent="VuH1P2dGyrRGzV6cBEOp-105">
          <mxGeometry x="-0.2584" y="1" relative="1" as="geometry">
            <mxPoint as="offset" />
          </mxGeometry>
        </mxCell>
        <mxCell id="VuH1P2dGyrRGzV6cBEOp-112" style="edgeStyle=orthogonalEdgeStyle;rounded=0;orthogonalLoop=1;jettySize=auto;html=1;exitX=0.5;exitY=1;exitDx=0;exitDy=0;entryX=0.5;entryY=0;entryDx=0;entryDy=0;endArrow=none;endFill=0;labelBackgroundColor=#FFFFFF;fontStyle=3" edge="1" parent="1">
          <mxGeometry relative="1" as="geometry">
            <mxPoint x="178.84000000000003" y="190" as="sourcePoint" />
            <mxPoint x="178.84000000000003" y="230" as="targetPoint" />
            <Array as="points">
              <mxPoint x="178.84000000000003" y="200" />
              <mxPoint x="178.84000000000003" y="200" />
            </Array>
          </mxGeometry>
        </mxCell>
        <mxCell id="VuH1P2dGyrRGzV6cBEOp-113" value="1...N" style="edgeLabel;html=1;align=center;verticalAlign=middle;resizable=0;points=[];labelBackgroundColor=#FFFFFF;fontStyle=3" vertex="1" connectable="0" parent="VuH1P2dGyrRGzV6cBEOp-112">
          <mxGeometry x="0.2189" relative="1" as="geometry">
            <mxPoint as="offset" />
          </mxGeometry>
        </mxCell>
        <mxCell id="VuH1P2dGyrRGzV6cBEOp-119" value="" style="shape=rhombus;perimeter=rhombusPerimeter;whiteSpace=wrap;html=1;align=center;fontSize=12;fontStyle=3" vertex="1" parent="1">
          <mxGeometry x="145.5" y="1380" width="50" height="40" as="geometry" />
        </mxCell>
        <mxCell id="VuH1P2dGyrRGzV6cBEOp-120" style="edgeStyle=orthogonalEdgeStyle;rounded=0;orthogonalLoop=1;jettySize=auto;html=1;entryX=0.5;entryY=0;entryDx=0;entryDy=0;endArrow=none;endFill=0;fontStyle=3" edge="1" parent="1">
          <mxGeometry relative="1" as="geometry">
            <mxPoint x="170.5" y="1300" as="sourcePoint" />
            <mxPoint x="170.34" y="1380" as="targetPoint" />
            <Array as="points">
              <mxPoint x="169.5" y="1350" />
            </Array>
          </mxGeometry>
        </mxCell>
        <mxCell id="VuH1P2dGyrRGzV6cBEOp-121" value="1...1" style="edgeLabel;html=1;align=center;verticalAlign=middle;resizable=0;points=[];fontStyle=3" vertex="1" connectable="0" parent="VuH1P2dGyrRGzV6cBEOp-120">
          <mxGeometry x="0.2189" relative="1" as="geometry">
            <mxPoint as="offset" />
          </mxGeometry>
        </mxCell>
        <mxCell id="VuH1P2dGyrRGzV6cBEOp-122" style="edgeStyle=orthogonalEdgeStyle;rounded=0;orthogonalLoop=1;jettySize=auto;html=1;exitX=0.5;exitY=1;exitDx=0;exitDy=0;endArrow=none;endFill=0;fontStyle=3" edge="1" parent="1">
          <mxGeometry relative="1" as="geometry">
            <mxPoint x="170.34" y="1420" as="sourcePoint" />
            <mxPoint x="170.5" y="1480" as="targetPoint" />
            <Array as="points">
              <mxPoint x="170.34" y="1430" />
              <mxPoint x="170.34" y="1430" />
            </Array>
          </mxGeometry>
        </mxCell>
        <mxCell id="VuH1P2dGyrRGzV6cBEOp-123" value="1...N" style="edgeLabel;html=1;align=center;verticalAlign=middle;resizable=0;points=[];fontStyle=3" vertex="1" connectable="0" parent="VuH1P2dGyrRGzV6cBEOp-122">
          <mxGeometry x="0.2189" relative="1" as="geometry">
            <mxPoint as="offset" />
          </mxGeometry>
        </mxCell>
        <mxCell id="VuH1P2dGyrRGzV6cBEOp-124" value="appartiene" style="shape=rhombus;perimeter=rhombusPerimeter;whiteSpace=wrap;html=1;align=center;fontSize=12;labelBackgroundColor=#FFFFFF;fontStyle=3" vertex="1" parent="1">
          <mxGeometry x="11.5" y="70" width="50" height="40" as="geometry" />
        </mxCell>
        <mxCell id="VuH1P2dGyrRGzV6cBEOp-125" value="1...N" style="line;strokeWidth=1;rotatable=0;dashed=0;labelPosition=center;align=center;verticalAlign=middle;spacingTop=0;spacingLeft=6;points=[];portConstraint=eastwest;verticalLabelPosition=middle;labelBackgroundColor=#FFFFFF;fontStyle=3" vertex="1" parent="1">
          <mxGeometry x="-60" y="85" width="71.5" height="10" as="geometry" />
        </mxCell>
        <mxCell id="VuH1P2dGyrRGzV6cBEOp-126" value="1...1" style="line;strokeWidth=1;rotatable=0;dashed=0;labelPosition=center;align=center;verticalAlign=middle;spacingTop=0;spacingLeft=6;points=[];portConstraint=eastwest;verticalLabelPosition=middle;labelBackgroundColor=#FFFFFF;fontStyle=3" vertex="1" parent="1">
          <mxGeometry x="60.5" y="85" width="70" height="10" as="geometry" />
        </mxCell>
        <mxCell id="VuH1P2dGyrRGzV6cBEOp-162" value="Fornitore" style="shape=table;startSize=30;container=1;collapsible=1;childLayout=tableLayout;fixedRows=1;rowLines=0;fontStyle=3;align=center;resizeLast=1;html=1;" vertex="1" parent="1">
          <mxGeometry x="78" y="1810" width="180" height="150" as="geometry" />
        </mxCell>
        <mxCell id="VuH1P2dGyrRGzV6cBEOp-163" value="" style="shape=tableRow;horizontal=0;startSize=0;swimlaneHead=0;swimlaneBody=0;fillColor=none;collapsible=0;dropTarget=0;points=[[0,0.5],[1,0.5]];portConstraint=eastwest;top=0;left=0;right=0;bottom=1;fontStyle=3" vertex="1" parent="VuH1P2dGyrRGzV6cBEOp-162">
          <mxGeometry y="30" width="180" height="30" as="geometry" />
        </mxCell>
        <mxCell id="VuH1P2dGyrRGzV6cBEOp-164" value="PK" style="shape=partialRectangle;connectable=0;fillColor=none;top=0;left=0;bottom=0;right=0;fontStyle=3;overflow=hidden;whiteSpace=wrap;html=1;" vertex="1" parent="VuH1P2dGyrRGzV6cBEOp-163">
          <mxGeometry width="30" height="30" as="geometry">
            <mxRectangle width="30" height="30" as="alternateBounds" />
          </mxGeometry>
        </mxCell>
        <mxCell id="VuH1P2dGyrRGzV6cBEOp-165" value="ID" style="shape=partialRectangle;connectable=0;fillColor=none;top=0;left=0;bottom=0;right=0;align=left;spacingLeft=6;fontStyle=7;overflow=hidden;whiteSpace=wrap;html=1;" vertex="1" parent="VuH1P2dGyrRGzV6cBEOp-163">
          <mxGeometry x="30" width="150" height="30" as="geometry">
            <mxRectangle width="150" height="30" as="alternateBounds" />
          </mxGeometry>
        </mxCell>
        <mxCell id="VuH1P2dGyrRGzV6cBEOp-166" value="" style="shape=tableRow;horizontal=0;startSize=0;swimlaneHead=0;swimlaneBody=0;fillColor=none;collapsible=0;dropTarget=0;points=[[0,0.5],[1,0.5]];portConstraint=eastwest;top=0;left=0;right=0;bottom=0;fontStyle=3" vertex="1" parent="VuH1P2dGyrRGzV6cBEOp-162">
          <mxGeometry y="60" width="180" height="30" as="geometry" />
        </mxCell>
        <mxCell id="VuH1P2dGyrRGzV6cBEOp-167" value="" style="shape=partialRectangle;connectable=0;fillColor=none;top=0;left=0;bottom=0;right=0;editable=1;overflow=hidden;whiteSpace=wrap;html=1;fontStyle=3" vertex="1" parent="VuH1P2dGyrRGzV6cBEOp-166">
          <mxGeometry width="30" height="30" as="geometry">
            <mxRectangle width="30" height="30" as="alternateBounds" />
          </mxGeometry>
        </mxCell>
        <mxCell id="VuH1P2dGyrRGzV6cBEOp-168" value="Nome" style="shape=partialRectangle;connectable=0;fillColor=none;top=0;left=0;bottom=0;right=0;align=left;spacingLeft=6;overflow=hidden;whiteSpace=wrap;html=1;fontStyle=3" vertex="1" parent="VuH1P2dGyrRGzV6cBEOp-166">
          <mxGeometry x="30" width="150" height="30" as="geometry">
            <mxRectangle width="150" height="30" as="alternateBounds" />
          </mxGeometry>
        </mxCell>
        <mxCell id="VuH1P2dGyrRGzV6cBEOp-169" value="" style="shape=tableRow;horizontal=0;startSize=0;swimlaneHead=0;swimlaneBody=0;fillColor=none;collapsible=0;dropTarget=0;points=[[0,0.5],[1,0.5]];portConstraint=eastwest;top=0;left=0;right=0;bottom=0;fontStyle=3" vertex="1" parent="VuH1P2dGyrRGzV6cBEOp-162">
          <mxGeometry y="90" width="180" height="30" as="geometry" />
        </mxCell>
        <mxCell id="VuH1P2dGyrRGzV6cBEOp-170" value="" style="shape=partialRectangle;connectable=0;fillColor=none;top=0;left=0;bottom=0;right=0;editable=1;overflow=hidden;whiteSpace=wrap;html=1;fontStyle=3" vertex="1" parent="VuH1P2dGyrRGzV6cBEOp-169">
          <mxGeometry width="30" height="30" as="geometry">
            <mxRectangle width="30" height="30" as="alternateBounds" />
          </mxGeometry>
        </mxCell>
        <mxCell id="VuH1P2dGyrRGzV6cBEOp-171" value="Valutazione&amp;nbsp;" style="shape=partialRectangle;connectable=0;fillColor=none;top=0;left=0;bottom=0;right=0;align=left;spacingLeft=6;overflow=hidden;whiteSpace=wrap;html=1;fontStyle=3" vertex="1" parent="VuH1P2dGyrRGzV6cBEOp-169">
          <mxGeometry x="30" width="150" height="30" as="geometry">
            <mxRectangle width="150" height="30" as="alternateBounds" />
          </mxGeometry>
        </mxCell>
        <mxCell id="VuH1P2dGyrRGzV6cBEOp-172" value="" style="shape=tableRow;horizontal=0;startSize=0;swimlaneHead=0;swimlaneBody=0;fillColor=none;collapsible=0;dropTarget=0;points=[[0,0.5],[1,0.5]];portConstraint=eastwest;top=0;left=0;right=0;bottom=0;fontStyle=3" vertex="1" parent="VuH1P2dGyrRGzV6cBEOp-162">
          <mxGeometry y="120" width="180" height="30" as="geometry" />
        </mxCell>
        <mxCell id="VuH1P2dGyrRGzV6cBEOp-173" value="" style="shape=partialRectangle;connectable=0;fillColor=none;top=0;left=0;bottom=0;right=0;editable=1;overflow=hidden;whiteSpace=wrap;html=1;fontStyle=3" vertex="1" parent="VuH1P2dGyrRGzV6cBEOp-172">
          <mxGeometry width="30" height="30" as="geometry">
            <mxRectangle width="30" height="30" as="alternateBounds" />
          </mxGeometry>
        </mxCell>
        <mxCell id="VuH1P2dGyrRGzV6cBEOp-174" value="Soglia spedizione" style="shape=partialRectangle;connectable=0;fillColor=none;top=0;left=0;bottom=0;right=0;align=left;spacingLeft=6;overflow=hidden;whiteSpace=wrap;html=1;fontStyle=3" vertex="1" parent="VuH1P2dGyrRGzV6cBEOp-172">
          <mxGeometry x="30" width="150" height="30" as="geometry">
            <mxRectangle width="150" height="30" as="alternateBounds" />
          </mxGeometry>
        </mxCell>
        <mxCell id="VuH1P2dGyrRGzV6cBEOp-175" value="Fascia di spesa" style="shape=table;startSize=30;container=1;collapsible=1;childLayout=tableLayout;fixedRows=1;rowLines=0;fontStyle=3;align=center;resizeLast=1;html=1;" vertex="1" parent="1">
          <mxGeometry x="447" y="1810" width="180" height="180" as="geometry" />
        </mxCell>
        <mxCell id="VuH1P2dGyrRGzV6cBEOp-176" value="" style="shape=tableRow;horizontal=0;startSize=0;swimlaneHead=0;swimlaneBody=0;fillColor=none;collapsible=0;dropTarget=0;points=[[0,0.5],[1,0.5]];portConstraint=eastwest;top=0;left=0;right=0;bottom=1;fontStyle=3" vertex="1" parent="VuH1P2dGyrRGzV6cBEOp-175">
          <mxGeometry y="30" width="180" height="30" as="geometry" />
        </mxCell>
        <mxCell id="VuH1P2dGyrRGzV6cBEOp-177" value="PK" style="shape=partialRectangle;connectable=0;fillColor=none;top=0;left=0;bottom=0;right=0;fontStyle=3;overflow=hidden;whiteSpace=wrap;html=1;" vertex="1" parent="VuH1P2dGyrRGzV6cBEOp-176">
          <mxGeometry width="30" height="30" as="geometry">
            <mxRectangle width="30" height="30" as="alternateBounds" />
          </mxGeometry>
        </mxCell>
        <mxCell id="VuH1P2dGyrRGzV6cBEOp-178" value="ID" style="shape=partialRectangle;connectable=0;fillColor=none;top=0;left=0;bottom=0;right=0;align=left;spacingLeft=6;fontStyle=7;overflow=hidden;whiteSpace=wrap;html=1;" vertex="1" parent="VuH1P2dGyrRGzV6cBEOp-176">
          <mxGeometry x="30" width="150" height="30" as="geometry">
            <mxRectangle width="150" height="30" as="alternateBounds" />
          </mxGeometry>
        </mxCell>
        <mxCell id="VuH1P2dGyrRGzV6cBEOp-179" value="" style="shape=tableRow;horizontal=0;startSize=0;swimlaneHead=0;swimlaneBody=0;fillColor=none;collapsible=0;dropTarget=0;points=[[0,0.5],[1,0.5]];portConstraint=eastwest;top=0;left=0;right=0;bottom=0;fontStyle=3" vertex="1" parent="VuH1P2dGyrRGzV6cBEOp-175">
          <mxGeometry y="60" width="180" height="30" as="geometry" />
        </mxCell>
        <mxCell id="VuH1P2dGyrRGzV6cBEOp-180" value="" style="shape=partialRectangle;connectable=0;fillColor=none;top=0;left=0;bottom=0;right=0;editable=1;overflow=hidden;whiteSpace=wrap;html=1;fontStyle=3" vertex="1" parent="VuH1P2dGyrRGzV6cBEOp-179">
          <mxGeometry width="30" height="30" as="geometry">
            <mxRectangle width="30" height="30" as="alternateBounds" />
          </mxGeometry>
        </mxCell>
        <mxCell id="VuH1P2dGyrRGzV6cBEOp-181" value="Min" style="shape=partialRectangle;connectable=0;fillColor=none;top=0;left=0;bottom=0;right=0;align=left;spacingLeft=6;overflow=hidden;whiteSpace=wrap;html=1;fontStyle=3" vertex="1" parent="VuH1P2dGyrRGzV6cBEOp-179">
          <mxGeometry x="30" width="150" height="30" as="geometry">
            <mxRectangle width="150" height="30" as="alternateBounds" />
          </mxGeometry>
        </mxCell>
        <mxCell id="VuH1P2dGyrRGzV6cBEOp-182" value="" style="shape=tableRow;horizontal=0;startSize=0;swimlaneHead=0;swimlaneBody=0;fillColor=none;collapsible=0;dropTarget=0;points=[[0,0.5],[1,0.5]];portConstraint=eastwest;top=0;left=0;right=0;bottom=0;fontStyle=3" vertex="1" parent="VuH1P2dGyrRGzV6cBEOp-175">
          <mxGeometry y="90" width="180" height="30" as="geometry" />
        </mxCell>
        <mxCell id="VuH1P2dGyrRGzV6cBEOp-183" value="" style="shape=partialRectangle;connectable=0;fillColor=none;top=0;left=0;bottom=0;right=0;editable=1;overflow=hidden;whiteSpace=wrap;html=1;fontStyle=3" vertex="1" parent="VuH1P2dGyrRGzV6cBEOp-182">
          <mxGeometry width="30" height="30" as="geometry">
            <mxRectangle width="30" height="30" as="alternateBounds" />
          </mxGeometry>
        </mxCell>
        <mxCell id="VuH1P2dGyrRGzV6cBEOp-184" value="Max" style="shape=partialRectangle;connectable=0;fillColor=none;top=0;left=0;bottom=0;right=0;align=left;spacingLeft=6;overflow=hidden;whiteSpace=wrap;html=1;fontStyle=3" vertex="1" parent="VuH1P2dGyrRGzV6cBEOp-182">
          <mxGeometry x="30" width="150" height="30" as="geometry">
            <mxRectangle width="150" height="30" as="alternateBounds" />
          </mxGeometry>
        </mxCell>
        <mxCell id="VuH1P2dGyrRGzV6cBEOp-320" value="" style="shape=tableRow;horizontal=0;startSize=0;swimlaneHead=0;swimlaneBody=0;fillColor=none;collapsible=0;dropTarget=0;points=[[0,0.5],[1,0.5]];portConstraint=eastwest;top=0;left=0;right=0;bottom=0;" vertex="1" parent="VuH1P2dGyrRGzV6cBEOp-175">
          <mxGeometry y="120" width="180" height="30" as="geometry" />
        </mxCell>
        <mxCell id="VuH1P2dGyrRGzV6cBEOp-321" value="" style="shape=partialRectangle;connectable=0;fillColor=none;top=0;left=0;bottom=0;right=0;editable=1;overflow=hidden;" vertex="1" parent="VuH1P2dGyrRGzV6cBEOp-320">
          <mxGeometry width="30" height="30" as="geometry">
            <mxRectangle width="30" height="30" as="alternateBounds" />
          </mxGeometry>
        </mxCell>
        <mxCell id="VuH1P2dGyrRGzV6cBEOp-322" value="Prezzo" style="shape=partialRectangle;connectable=0;fillColor=none;top=0;left=0;bottom=0;right=0;align=left;spacingLeft=6;overflow=hidden;fontStyle=1" vertex="1" parent="VuH1P2dGyrRGzV6cBEOp-320">
          <mxGeometry x="30" width="150" height="30" as="geometry">
            <mxRectangle width="150" height="30" as="alternateBounds" />
          </mxGeometry>
        </mxCell>
        <mxCell id="VuH1P2dGyrRGzV6cBEOp-317" value="" style="shape=tableRow;horizontal=0;startSize=0;swimlaneHead=0;swimlaneBody=0;fillColor=none;collapsible=0;dropTarget=0;points=[[0,0.5],[1,0.5]];portConstraint=eastwest;top=0;left=0;right=0;bottom=0;" vertex="1" parent="VuH1P2dGyrRGzV6cBEOp-175">
          <mxGeometry y="150" width="180" height="30" as="geometry" />
        </mxCell>
        <mxCell id="VuH1P2dGyrRGzV6cBEOp-318" value="FK" style="shape=partialRectangle;connectable=0;fillColor=none;top=0;left=0;bottom=0;right=0;editable=1;overflow=hidden;fontStyle=1" vertex="1" parent="VuH1P2dGyrRGzV6cBEOp-317">
          <mxGeometry width="30" height="30" as="geometry">
            <mxRectangle width="30" height="30" as="alternateBounds" />
          </mxGeometry>
        </mxCell>
        <mxCell id="VuH1P2dGyrRGzV6cBEOp-319" value="ID_Fornitore" style="shape=partialRectangle;connectable=0;fillColor=none;top=0;left=0;bottom=0;right=0;align=left;spacingLeft=6;overflow=hidden;fontStyle=1" vertex="1" parent="VuH1P2dGyrRGzV6cBEOp-317">
          <mxGeometry x="30" width="150" height="30" as="geometry">
            <mxRectangle width="150" height="30" as="alternateBounds" />
          </mxGeometry>
        </mxCell>
        <mxCell id="VuH1P2dGyrRGzV6cBEOp-188" value="" style="shape=rhombus;perimeter=rhombusPerimeter;whiteSpace=wrap;html=1;align=center;fontSize=12;fontStyle=3" vertex="1" parent="1">
          <mxGeometry x="326" y="1865" width="50" height="40" as="geometry" />
        </mxCell>
        <mxCell id="VuH1P2dGyrRGzV6cBEOp-189" value="1...N" style="line;strokeWidth=1;rotatable=0;dashed=0;labelPosition=center;align=center;verticalAlign=middle;spacingTop=0;spacingLeft=6;points=[];portConstraint=eastwest;verticalLabelPosition=middle;fontStyle=3" vertex="1" parent="1">
          <mxGeometry x="257" y="1880" width="69" height="10" as="geometry" />
        </mxCell>
        <mxCell id="VuH1P2dGyrRGzV6cBEOp-190" value="1...1" style="line;strokeWidth=1;rotatable=0;dashed=0;labelPosition=center;align=center;verticalAlign=middle;spacingTop=0;spacingLeft=6;points=[];portConstraint=eastwest;verticalLabelPosition=middle;fontStyle=3" vertex="1" parent="1">
          <mxGeometry x="376" y="1880" width="71" height="10" as="geometry" />
        </mxCell>
        <mxCell id="VuH1P2dGyrRGzV6cBEOp-192" style="edgeStyle=orthogonalEdgeStyle;rounded=0;orthogonalLoop=1;jettySize=auto;html=1;entryX=0.5;entryY=0;entryDx=0;entryDy=0;endArrow=none;endFill=0;fontStyle=3;" edge="1" parent="1" source="VuH1P2dGyrRGzV6cBEOp-191">
          <mxGeometry relative="1" as="geometry">
            <mxPoint x="169" y="1570" as="sourcePoint" />
            <mxPoint x="168.84" y="1710" as="targetPoint" />
            <Array as="points">
              <mxPoint x="170" y="1680" />
              <mxPoint x="169" y="1680" />
            </Array>
          </mxGeometry>
        </mxCell>
        <mxCell id="VuH1P2dGyrRGzV6cBEOp-193" value="1...N" style="edgeLabel;html=1;align=center;verticalAlign=middle;resizable=0;points=[];fontStyle=3" vertex="1" connectable="0" parent="VuH1P2dGyrRGzV6cBEOp-192">
          <mxGeometry x="0.2189" relative="1" as="geometry">
            <mxPoint as="offset" />
          </mxGeometry>
        </mxCell>
        <mxCell id="VuH1P2dGyrRGzV6cBEOp-194" style="edgeStyle=orthogonalEdgeStyle;rounded=0;orthogonalLoop=1;jettySize=auto;html=1;exitX=0.5;exitY=1;exitDx=0;exitDy=0;endArrow=none;endFill=0;fontStyle=3" edge="1" parent="1" source="VuH1P2dGyrRGzV6cBEOp-191">
          <mxGeometry relative="1" as="geometry">
            <mxPoint x="168.84" y="1750" as="sourcePoint" />
            <mxPoint x="169" y="1810" as="targetPoint" />
            <Array as="points">
              <mxPoint x="170" y="1760" />
            </Array>
          </mxGeometry>
        </mxCell>
        <mxCell id="VuH1P2dGyrRGzV6cBEOp-195" value="1...1" style="edgeLabel;html=1;align=center;verticalAlign=middle;resizable=0;points=[];fontStyle=3" vertex="1" connectable="0" parent="VuH1P2dGyrRGzV6cBEOp-194">
          <mxGeometry x="0.2189" relative="1" as="geometry">
            <mxPoint as="offset" />
          </mxGeometry>
        </mxCell>
        <mxCell id="VuH1P2dGyrRGzV6cBEOp-196" value="Utente" style="shape=table;startSize=30;container=1;collapsible=1;childLayout=tableLayout;fixedRows=1;rowLines=0;fontStyle=3;align=center;resizeLast=1;html=1;" vertex="1" parent="1">
          <mxGeometry x="81.5" y="430" width="180" height="210" as="geometry" />
        </mxCell>
        <mxCell id="VuH1P2dGyrRGzV6cBEOp-197" value="" style="shape=tableRow;horizontal=0;startSize=0;swimlaneHead=0;swimlaneBody=0;fillColor=none;collapsible=0;dropTarget=0;points=[[0,0.5],[1,0.5]];portConstraint=eastwest;top=0;left=0;right=0;bottom=1;fontStyle=3" vertex="1" parent="VuH1P2dGyrRGzV6cBEOp-196">
          <mxGeometry y="30" width="180" height="30" as="geometry" />
        </mxCell>
        <mxCell id="VuH1P2dGyrRGzV6cBEOp-198" value="PK" style="shape=partialRectangle;connectable=0;fillColor=none;top=0;left=0;bottom=0;right=0;fontStyle=3;overflow=hidden;whiteSpace=wrap;html=1;" vertex="1" parent="VuH1P2dGyrRGzV6cBEOp-197">
          <mxGeometry width="30" height="30" as="geometry">
            <mxRectangle width="30" height="30" as="alternateBounds" />
          </mxGeometry>
        </mxCell>
        <mxCell id="VuH1P2dGyrRGzV6cBEOp-199" value="ID" style="shape=partialRectangle;connectable=0;fillColor=none;top=0;left=0;bottom=0;right=0;align=left;spacingLeft=6;fontStyle=7;overflow=hidden;whiteSpace=wrap;html=1;" vertex="1" parent="VuH1P2dGyrRGzV6cBEOp-197">
          <mxGeometry x="30" width="150" height="30" as="geometry">
            <mxRectangle width="150" height="30" as="alternateBounds" />
          </mxGeometry>
        </mxCell>
        <mxCell id="VuH1P2dGyrRGzV6cBEOp-200" value="" style="shape=tableRow;horizontal=0;startSize=0;swimlaneHead=0;swimlaneBody=0;fillColor=none;collapsible=0;dropTarget=0;points=[[0,0.5],[1,0.5]];portConstraint=eastwest;top=0;left=0;right=0;bottom=0;fontStyle=3" vertex="1" parent="VuH1P2dGyrRGzV6cBEOp-196">
          <mxGeometry y="60" width="180" height="30" as="geometry" />
        </mxCell>
        <mxCell id="VuH1P2dGyrRGzV6cBEOp-201" value="" style="shape=partialRectangle;connectable=0;fillColor=none;top=0;left=0;bottom=0;right=0;editable=1;overflow=hidden;whiteSpace=wrap;html=1;fontStyle=3" vertex="1" parent="VuH1P2dGyrRGzV6cBEOp-200">
          <mxGeometry width="30" height="30" as="geometry">
            <mxRectangle width="30" height="30" as="alternateBounds" />
          </mxGeometry>
        </mxCell>
        <mxCell id="VuH1P2dGyrRGzV6cBEOp-202" value="Nome" style="shape=partialRectangle;connectable=0;fillColor=none;top=0;left=0;bottom=0;right=0;align=left;spacingLeft=6;overflow=hidden;whiteSpace=wrap;html=1;fontStyle=3" vertex="1" parent="VuH1P2dGyrRGzV6cBEOp-200">
          <mxGeometry x="30" width="150" height="30" as="geometry">
            <mxRectangle width="150" height="30" as="alternateBounds" />
          </mxGeometry>
        </mxCell>
        <mxCell id="VuH1P2dGyrRGzV6cBEOp-305" value="" style="shape=tableRow;horizontal=0;startSize=0;swimlaneHead=0;swimlaneBody=0;fillColor=none;collapsible=0;dropTarget=0;points=[[0,0.5],[1,0.5]];portConstraint=eastwest;top=0;left=0;right=0;bottom=0;" vertex="1" parent="VuH1P2dGyrRGzV6cBEOp-196">
          <mxGeometry y="90" width="180" height="30" as="geometry" />
        </mxCell>
        <mxCell id="VuH1P2dGyrRGzV6cBEOp-306" value="" style="shape=partialRectangle;connectable=0;fillColor=none;top=0;left=0;bottom=0;right=0;editable=1;overflow=hidden;" vertex="1" parent="VuH1P2dGyrRGzV6cBEOp-305">
          <mxGeometry width="30" height="30" as="geometry">
            <mxRectangle width="30" height="30" as="alternateBounds" />
          </mxGeometry>
        </mxCell>
        <mxCell id="VuH1P2dGyrRGzV6cBEOp-307" value="Cognome" style="shape=partialRectangle;connectable=0;fillColor=none;top=0;left=0;bottom=0;right=0;align=left;spacingLeft=6;overflow=hidden;fontStyle=1" vertex="1" parent="VuH1P2dGyrRGzV6cBEOp-305">
          <mxGeometry x="30" width="150" height="30" as="geometry">
            <mxRectangle width="150" height="30" as="alternateBounds" />
          </mxGeometry>
        </mxCell>
        <mxCell id="VuH1P2dGyrRGzV6cBEOp-203" value="" style="shape=tableRow;horizontal=0;startSize=0;swimlaneHead=0;swimlaneBody=0;fillColor=none;collapsible=0;dropTarget=0;points=[[0,0.5],[1,0.5]];portConstraint=eastwest;top=0;left=0;right=0;bottom=0;fontStyle=3" vertex="1" parent="VuH1P2dGyrRGzV6cBEOp-196">
          <mxGeometry y="120" width="180" height="30" as="geometry" />
        </mxCell>
        <mxCell id="VuH1P2dGyrRGzV6cBEOp-204" value="" style="shape=partialRectangle;connectable=0;fillColor=none;top=0;left=0;bottom=0;right=0;editable=1;overflow=hidden;whiteSpace=wrap;html=1;fontStyle=3" vertex="1" parent="VuH1P2dGyrRGzV6cBEOp-203">
          <mxGeometry width="30" height="30" as="geometry">
            <mxRectangle width="30" height="30" as="alternateBounds" />
          </mxGeometry>
        </mxCell>
        <mxCell id="VuH1P2dGyrRGzV6cBEOp-205" value="Email" style="shape=partialRectangle;connectable=0;fillColor=none;top=0;left=0;bottom=0;right=0;align=left;spacingLeft=6;overflow=hidden;whiteSpace=wrap;html=1;fontStyle=3" vertex="1" parent="VuH1P2dGyrRGzV6cBEOp-203">
          <mxGeometry x="30" width="150" height="30" as="geometry">
            <mxRectangle width="150" height="30" as="alternateBounds" />
          </mxGeometry>
        </mxCell>
        <mxCell id="VuH1P2dGyrRGzV6cBEOp-206" value="" style="shape=tableRow;horizontal=0;startSize=0;swimlaneHead=0;swimlaneBody=0;fillColor=none;collapsible=0;dropTarget=0;points=[[0,0.5],[1,0.5]];portConstraint=eastwest;top=0;left=0;right=0;bottom=0;fontStyle=3" vertex="1" parent="VuH1P2dGyrRGzV6cBEOp-196">
          <mxGeometry y="150" width="180" height="30" as="geometry" />
        </mxCell>
        <mxCell id="VuH1P2dGyrRGzV6cBEOp-207" value="" style="shape=partialRectangle;connectable=0;fillColor=none;top=0;left=0;bottom=0;right=0;editable=1;overflow=hidden;whiteSpace=wrap;html=1;fontStyle=3" vertex="1" parent="VuH1P2dGyrRGzV6cBEOp-206">
          <mxGeometry width="30" height="30" as="geometry">
            <mxRectangle width="30" height="30" as="alternateBounds" />
          </mxGeometry>
        </mxCell>
        <mxCell id="VuH1P2dGyrRGzV6cBEOp-208" value="Password" style="shape=partialRectangle;connectable=0;fillColor=none;top=0;left=0;bottom=0;right=0;align=left;spacingLeft=6;overflow=hidden;whiteSpace=wrap;html=1;fontStyle=3" vertex="1" parent="VuH1P2dGyrRGzV6cBEOp-206">
          <mxGeometry x="30" width="150" height="30" as="geometry">
            <mxRectangle width="150" height="30" as="alternateBounds" />
          </mxGeometry>
        </mxCell>
        <mxCell id="VuH1P2dGyrRGzV6cBEOp-314" value="" style="shape=tableRow;horizontal=0;startSize=0;swimlaneHead=0;swimlaneBody=0;fillColor=none;collapsible=0;dropTarget=0;points=[[0,0.5],[1,0.5]];portConstraint=eastwest;top=0;left=0;right=0;bottom=0;" vertex="1" parent="VuH1P2dGyrRGzV6cBEOp-196">
          <mxGeometry y="180" width="180" height="30" as="geometry" />
        </mxCell>
        <mxCell id="VuH1P2dGyrRGzV6cBEOp-315" value="" style="shape=partialRectangle;connectable=0;fillColor=none;top=0;left=0;bottom=0;right=0;editable=1;overflow=hidden;" vertex="1" parent="VuH1P2dGyrRGzV6cBEOp-314">
          <mxGeometry width="30" height="30" as="geometry">
            <mxRectangle width="30" height="30" as="alternateBounds" />
          </mxGeometry>
        </mxCell>
        <mxCell id="VuH1P2dGyrRGzV6cBEOp-316" value="Indirizzo" style="shape=partialRectangle;connectable=0;fillColor=none;top=0;left=0;bottom=0;right=0;align=left;spacingLeft=6;overflow=hidden;fontStyle=1" vertex="1" parent="VuH1P2dGyrRGzV6cBEOp-314">
          <mxGeometry x="30" width="150" height="30" as="geometry">
            <mxRectangle width="150" height="30" as="alternateBounds" />
          </mxGeometry>
        </mxCell>
        <mxCell id="VuH1P2dGyrRGzV6cBEOp-209" value="Ordine" style="shape=table;startSize=30;container=1;collapsible=1;childLayout=tableLayout;fixedRows=1;rowLines=0;fontStyle=3;align=center;resizeLast=1;html=1;" vertex="1" parent="1">
          <mxGeometry x="449.5" y="490" width="180" height="180" as="geometry" />
        </mxCell>
        <mxCell id="VuH1P2dGyrRGzV6cBEOp-210" value="" style="shape=tableRow;horizontal=0;startSize=0;swimlaneHead=0;swimlaneBody=0;fillColor=none;collapsible=0;dropTarget=0;points=[[0,0.5],[1,0.5]];portConstraint=eastwest;top=0;left=0;right=0;bottom=1;fontStyle=3" vertex="1" parent="VuH1P2dGyrRGzV6cBEOp-209">
          <mxGeometry y="30" width="180" height="30" as="geometry" />
        </mxCell>
        <mxCell id="VuH1P2dGyrRGzV6cBEOp-211" value="PK" style="shape=partialRectangle;connectable=0;fillColor=none;top=0;left=0;bottom=0;right=0;fontStyle=3;overflow=hidden;whiteSpace=wrap;html=1;" vertex="1" parent="VuH1P2dGyrRGzV6cBEOp-210">
          <mxGeometry width="30" height="30" as="geometry">
            <mxRectangle width="30" height="30" as="alternateBounds" />
          </mxGeometry>
        </mxCell>
        <mxCell id="VuH1P2dGyrRGzV6cBEOp-212" value="ID" style="shape=partialRectangle;connectable=0;fillColor=none;top=0;left=0;bottom=0;right=0;align=left;spacingLeft=6;fontStyle=7;overflow=hidden;whiteSpace=wrap;html=1;" vertex="1" parent="VuH1P2dGyrRGzV6cBEOp-210">
          <mxGeometry x="30" width="150" height="30" as="geometry">
            <mxRectangle width="150" height="30" as="alternateBounds" />
          </mxGeometry>
        </mxCell>
        <mxCell id="VuH1P2dGyrRGzV6cBEOp-323" value="" style="shape=tableRow;horizontal=0;startSize=0;swimlaneHead=0;swimlaneBody=0;fillColor=none;collapsible=0;dropTarget=0;points=[[0,0.5],[1,0.5]];portConstraint=eastwest;top=0;left=0;right=0;bottom=0;" vertex="1" parent="VuH1P2dGyrRGzV6cBEOp-209">
          <mxGeometry y="60" width="180" height="30" as="geometry" />
        </mxCell>
        <mxCell id="VuH1P2dGyrRGzV6cBEOp-324" value="" style="shape=partialRectangle;connectable=0;fillColor=none;top=0;left=0;bottom=0;right=0;editable=1;overflow=hidden;" vertex="1" parent="VuH1P2dGyrRGzV6cBEOp-323">
          <mxGeometry width="30" height="30" as="geometry">
            <mxRectangle width="30" height="30" as="alternateBounds" />
          </mxGeometry>
        </mxCell>
        <mxCell id="VuH1P2dGyrRGzV6cBEOp-325" value="" style="shape=partialRectangle;connectable=0;fillColor=none;top=0;left=0;bottom=0;right=0;align=left;spacingLeft=6;overflow=hidden;" vertex="1" parent="VuH1P2dGyrRGzV6cBEOp-323">
          <mxGeometry x="30" width="150" height="30" as="geometry">
            <mxRectangle width="150" height="30" as="alternateBounds" />
          </mxGeometry>
        </mxCell>
        <mxCell id="VuH1P2dGyrRGzV6cBEOp-326" value="" style="shape=tableRow;horizontal=0;startSize=0;swimlaneHead=0;swimlaneBody=0;fillColor=none;collapsible=0;dropTarget=0;points=[[0,0.5],[1,0.5]];portConstraint=eastwest;top=0;left=0;right=0;bottom=0;" vertex="1" parent="VuH1P2dGyrRGzV6cBEOp-209">
          <mxGeometry y="90" width="180" height="30" as="geometry" />
        </mxCell>
        <mxCell id="VuH1P2dGyrRGzV6cBEOp-327" value="" style="shape=partialRectangle;connectable=0;fillColor=none;top=0;left=0;bottom=0;right=0;editable=1;overflow=hidden;" vertex="1" parent="VuH1P2dGyrRGzV6cBEOp-326">
          <mxGeometry width="30" height="30" as="geometry">
            <mxRectangle width="30" height="30" as="alternateBounds" />
          </mxGeometry>
        </mxCell>
        <mxCell id="VuH1P2dGyrRGzV6cBEOp-328" value="" style="shape=partialRectangle;connectable=0;fillColor=none;top=0;left=0;bottom=0;right=0;align=left;spacingLeft=6;overflow=hidden;" vertex="1" parent="VuH1P2dGyrRGzV6cBEOp-326">
          <mxGeometry x="30" width="150" height="30" as="geometry">
            <mxRectangle width="150" height="30" as="alternateBounds" />
          </mxGeometry>
        </mxCell>
        <mxCell id="VuH1P2dGyrRGzV6cBEOp-329" value="" style="shape=tableRow;horizontal=0;startSize=0;swimlaneHead=0;swimlaneBody=0;fillColor=none;collapsible=0;dropTarget=0;points=[[0,0.5],[1,0.5]];portConstraint=eastwest;top=0;left=0;right=0;bottom=0;" vertex="1" parent="VuH1P2dGyrRGzV6cBEOp-209">
          <mxGeometry y="120" width="180" height="30" as="geometry" />
        </mxCell>
        <mxCell id="VuH1P2dGyrRGzV6cBEOp-330" value="" style="shape=partialRectangle;connectable=0;fillColor=none;top=0;left=0;bottom=0;right=0;editable=1;overflow=hidden;" vertex="1" parent="VuH1P2dGyrRGzV6cBEOp-329">
          <mxGeometry width="30" height="30" as="geometry">
            <mxRectangle width="30" height="30" as="alternateBounds" />
          </mxGeometry>
        </mxCell>
        <mxCell id="VuH1P2dGyrRGzV6cBEOp-331" value="" style="shape=partialRectangle;connectable=0;fillColor=none;top=0;left=0;bottom=0;right=0;align=left;spacingLeft=6;overflow=hidden;" vertex="1" parent="VuH1P2dGyrRGzV6cBEOp-329">
          <mxGeometry x="30" width="150" height="30" as="geometry">
            <mxRectangle width="150" height="30" as="alternateBounds" />
          </mxGeometry>
        </mxCell>
        <mxCell id="VuH1P2dGyrRGzV6cBEOp-213" value="" style="shape=tableRow;horizontal=0;startSize=0;swimlaneHead=0;swimlaneBody=0;fillColor=none;collapsible=0;dropTarget=0;points=[[0,0.5],[1,0.5]];portConstraint=eastwest;top=0;left=0;right=0;bottom=0;fontStyle=3" vertex="1" parent="VuH1P2dGyrRGzV6cBEOp-209">
          <mxGeometry y="150" width="180" height="30" as="geometry" />
        </mxCell>
        <mxCell id="VuH1P2dGyrRGzV6cBEOp-214" value="" style="shape=partialRectangle;connectable=0;fillColor=none;top=0;left=0;bottom=0;right=0;editable=1;overflow=hidden;whiteSpace=wrap;html=1;fontStyle=3" vertex="1" parent="VuH1P2dGyrRGzV6cBEOp-213">
          <mxGeometry width="30" height="30" as="geometry">
            <mxRectangle width="30" height="30" as="alternateBounds" />
          </mxGeometry>
        </mxCell>
        <mxCell id="VuH1P2dGyrRGzV6cBEOp-215" value="" style="shape=partialRectangle;connectable=0;fillColor=none;top=0;left=0;bottom=0;right=0;align=left;spacingLeft=6;overflow=hidden;whiteSpace=wrap;html=1;fontStyle=3" vertex="1" parent="VuH1P2dGyrRGzV6cBEOp-213">
          <mxGeometry x="30" width="150" height="30" as="geometry">
            <mxRectangle width="150" height="30" as="alternateBounds" />
          </mxGeometry>
        </mxCell>
        <mxCell id="VuH1P2dGyrRGzV6cBEOp-222" value="" style="shape=rhombus;perimeter=rhombusPerimeter;whiteSpace=wrap;html=1;align=center;fontSize=12;fontStyle=3" vertex="1" parent="1">
          <mxGeometry x="330.5" y="545" width="50" height="40" as="geometry" />
        </mxCell>
        <mxCell id="VuH1P2dGyrRGzV6cBEOp-223" value="1...N" style="line;strokeWidth=1;rotatable=0;dashed=0;labelPosition=center;align=center;verticalAlign=middle;spacingTop=0;spacingLeft=6;points=[];portConstraint=eastwest;verticalLabelPosition=middle;fontStyle=3" vertex="1" parent="1">
          <mxGeometry x="261.5" y="560" width="70.5" height="10" as="geometry" />
        </mxCell>
        <mxCell id="VuH1P2dGyrRGzV6cBEOp-224" value="1...1" style="line;strokeWidth=1;rotatable=0;dashed=0;labelPosition=center;align=center;verticalAlign=middle;spacingTop=0;spacingLeft=6;points=[];portConstraint=eastwest;verticalLabelPosition=middle;fontStyle=3" vertex="1" parent="1">
          <mxGeometry x="379.5" y="560" width="70" height="10" as="geometry" />
        </mxCell>
        <mxCell id="VuH1P2dGyrRGzV6cBEOp-225" style="edgeStyle=orthogonalEdgeStyle;rounded=0;orthogonalLoop=1;jettySize=auto;html=1;exitX=0.5;exitY=1;exitDx=0;exitDy=0;fontStyle=3" edge="1" parent="1">
          <mxGeometry relative="1" as="geometry">
            <mxPoint x="171.29999999999995" y="680.4" as="targetPoint" />
            <mxPoint x="171.5" y="680" as="sourcePoint" />
          </mxGeometry>
        </mxCell>
        <mxCell id="VuH1P2dGyrRGzV6cBEOp-226" value="1...1" style="edgeStyle=orthogonalEdgeStyle;rounded=0;orthogonalLoop=1;jettySize=auto;html=1;exitX=0.506;exitY=0.996;exitDx=0;exitDy=0;entryX=0.5;entryY=0;entryDx=0;entryDy=0;endArrow=none;endFill=0;exitPerimeter=0;fontStyle=3" edge="1" parent="1" source="VuH1P2dGyrRGzV6cBEOp-314" target="VuH1P2dGyrRGzV6cBEOp-227">
          <mxGeometry relative="1" as="geometry">
            <Array as="points">
              <mxPoint x="173" y="680" />
              <mxPoint x="172" y="680" />
            </Array>
            <mxPoint x="171.5" y="680" as="sourcePoint" />
          </mxGeometry>
        </mxCell>
        <mxCell id="VuH1P2dGyrRGzV6cBEOp-227" value="" style="shape=rhombus;perimeter=rhombusPerimeter;whiteSpace=wrap;html=1;align=center;fontSize=12;fontStyle=3" vertex="1" parent="1">
          <mxGeometry x="146.5" y="720" width="50" height="40" as="geometry" />
        </mxCell>
        <mxCell id="VuH1P2dGyrRGzV6cBEOp-228" style="edgeStyle=orthogonalEdgeStyle;rounded=0;orthogonalLoop=1;jettySize=auto;html=1;exitX=0.5;exitY=1;exitDx=0;exitDy=0;entryX=0.5;entryY=0;entryDx=0;entryDy=0;endArrow=none;endFill=0;fontStyle=3" edge="1" parent="1">
          <mxGeometry relative="1" as="geometry">
            <mxPoint x="171.39999999999998" y="760" as="sourcePoint" />
            <mxPoint x="172" y="820" as="targetPoint" />
            <Array as="points">
              <mxPoint x="171" y="770" />
            </Array>
          </mxGeometry>
        </mxCell>
        <mxCell id="VuH1P2dGyrRGzV6cBEOp-229" value="1...N" style="edgeLabel;html=1;align=center;verticalAlign=middle;resizable=0;points=[];fontStyle=3" vertex="1" connectable="0" parent="VuH1P2dGyrRGzV6cBEOp-228">
          <mxGeometry x="-0.2584" y="1" relative="1" as="geometry">
            <mxPoint as="offset" />
          </mxGeometry>
        </mxCell>
        <mxCell id="VuH1P2dGyrRGzV6cBEOp-264" value="" style="shape=rhombus;perimeter=rhombusPerimeter;whiteSpace=wrap;html=1;align=center;fontSize=12;fontStyle=3" vertex="1" parent="1">
          <mxGeometry x="332" y="1223" width="50" height="40" as="geometry" />
        </mxCell>
        <mxCell id="VuH1P2dGyrRGzV6cBEOp-265" value="1...N" style="line;strokeWidth=1;rotatable=0;dashed=0;labelPosition=center;align=center;verticalAlign=middle;spacingTop=0;spacingLeft=6;points=[];portConstraint=eastwest;verticalLabelPosition=middle;fontStyle=3" vertex="1" parent="1">
          <mxGeometry x="260.5" y="1238" width="71.5" height="10" as="geometry" />
        </mxCell>
        <mxCell id="VuH1P2dGyrRGzV6cBEOp-266" value="1...1" style="line;strokeWidth=1;rotatable=0;dashed=0;labelPosition=center;align=center;verticalAlign=middle;spacingTop=0;spacingLeft=6;points=[];portConstraint=eastwest;verticalLabelPosition=middle;fontStyle=3" vertex="1" parent="1">
          <mxGeometry x="381" y="1238" width="70" height="10" as="geometry" />
        </mxCell>
        <mxCell id="VuH1P2dGyrRGzV6cBEOp-267" value="Prodotto-Ordine" style="shape=table;startSize=30;container=1;collapsible=1;childLayout=tableLayout;fixedRows=1;rowLines=0;fontStyle=3;align=center;resizeLast=1;html=1;" vertex="1" parent="1">
          <mxGeometry x="451" y="1190" width="180" height="90" as="geometry" />
        </mxCell>
        <mxCell id="VuH1P2dGyrRGzV6cBEOp-268" value="" style="shape=tableRow;horizontal=0;startSize=0;swimlaneHead=0;swimlaneBody=0;fillColor=none;collapsible=0;dropTarget=0;points=[[0,0.5],[1,0.5]];portConstraint=eastwest;top=0;left=0;right=0;bottom=1;fontStyle=3" vertex="1" parent="VuH1P2dGyrRGzV6cBEOp-267">
          <mxGeometry y="30" width="180" height="30" as="geometry" />
        </mxCell>
        <mxCell id="VuH1P2dGyrRGzV6cBEOp-269" value="PK" style="shape=partialRectangle;connectable=0;fillColor=none;top=0;left=0;bottom=0;right=0;fontStyle=5;overflow=hidden;whiteSpace=wrap;html=1;" vertex="1" parent="VuH1P2dGyrRGzV6cBEOp-268">
          <mxGeometry width="30" height="30" as="geometry">
            <mxRectangle width="30" height="30" as="alternateBounds" />
          </mxGeometry>
        </mxCell>
        <mxCell id="VuH1P2dGyrRGzV6cBEOp-270" value="ID_Prodotto" style="shape=partialRectangle;connectable=0;fillColor=none;top=0;left=0;bottom=0;right=0;align=left;spacingLeft=6;fontStyle=5;overflow=hidden;whiteSpace=wrap;html=1;" vertex="1" parent="VuH1P2dGyrRGzV6cBEOp-268">
          <mxGeometry x="30" width="150" height="30" as="geometry">
            <mxRectangle width="150" height="30" as="alternateBounds" />
          </mxGeometry>
        </mxCell>
        <mxCell id="VuH1P2dGyrRGzV6cBEOp-271" value="" style="shape=tableRow;horizontal=0;startSize=0;swimlaneHead=0;swimlaneBody=0;fillColor=none;collapsible=0;dropTarget=0;points=[[0,0.5],[1,0.5]];portConstraint=eastwest;top=0;left=0;right=0;bottom=0;fontStyle=3" vertex="1" parent="VuH1P2dGyrRGzV6cBEOp-267">
          <mxGeometry y="60" width="180" height="30" as="geometry" />
        </mxCell>
        <mxCell id="VuH1P2dGyrRGzV6cBEOp-272" value="PK" style="shape=partialRectangle;connectable=0;fillColor=none;top=0;left=0;bottom=0;right=0;editable=1;overflow=hidden;whiteSpace=wrap;html=1;fontStyle=5" vertex="1" parent="VuH1P2dGyrRGzV6cBEOp-271">
          <mxGeometry width="30" height="30" as="geometry">
            <mxRectangle width="30" height="30" as="alternateBounds" />
          </mxGeometry>
        </mxCell>
        <mxCell id="VuH1P2dGyrRGzV6cBEOp-273" value="ID_Ordine" style="shape=partialRectangle;connectable=0;fillColor=none;top=0;left=0;bottom=0;right=0;align=left;spacingLeft=6;overflow=hidden;whiteSpace=wrap;html=1;fontStyle=5" vertex="1" parent="VuH1P2dGyrRGzV6cBEOp-271">
          <mxGeometry x="30" width="150" height="30" as="geometry">
            <mxRectangle width="150" height="30" as="alternateBounds" />
          </mxGeometry>
        </mxCell>
        <mxCell id="VuH1P2dGyrRGzV6cBEOp-280" style="edgeStyle=orthogonalEdgeStyle;rounded=0;orthogonalLoop=1;jettySize=auto;html=1;exitX=0.5;exitY=1;exitDx=0;exitDy=0;fontStyle=3" edge="1" parent="1">
          <mxGeometry relative="1" as="geometry">
            <mxPoint x="540.8" y="1009.4" as="targetPoint" />
            <mxPoint x="541" y="1009" as="sourcePoint" />
          </mxGeometry>
        </mxCell>
        <mxCell id="VuH1P2dGyrRGzV6cBEOp-281" value="1...N" style="edgeStyle=orthogonalEdgeStyle;rounded=0;orthogonalLoop=1;jettySize=auto;html=1;entryX=0.5;entryY=0;entryDx=0;entryDy=0;endArrow=none;endFill=0;fontStyle=3;" edge="1" parent="1" target="VuH1P2dGyrRGzV6cBEOp-282" source="VuH1P2dGyrRGzV6cBEOp-213">
          <mxGeometry relative="1" as="geometry">
            <Array as="points">
              <mxPoint x="541" y="720" />
              <mxPoint x="541" y="720" />
            </Array>
            <mxPoint x="541" y="690" as="sourcePoint" />
          </mxGeometry>
        </mxCell>
        <mxCell id="VuH1P2dGyrRGzV6cBEOp-282" value="" style="shape=rhombus;perimeter=rhombusPerimeter;whiteSpace=wrap;html=1;align=center;fontSize=12;fontStyle=3" vertex="1" parent="1">
          <mxGeometry x="516" y="875" width="50" height="40" as="geometry" />
        </mxCell>
        <mxCell id="VuH1P2dGyrRGzV6cBEOp-283" style="edgeStyle=orthogonalEdgeStyle;rounded=0;orthogonalLoop=1;jettySize=auto;html=1;exitX=0.5;exitY=1;exitDx=0;exitDy=0;entryX=0.5;entryY=0;entryDx=0;entryDy=0;endArrow=none;endFill=0;fontStyle=3" edge="1" parent="1" target="VuH1P2dGyrRGzV6cBEOp-267" source="VuH1P2dGyrRGzV6cBEOp-282">
          <mxGeometry relative="1" as="geometry">
            <mxPoint x="540.9" y="1089" as="sourcePoint" />
            <mxPoint x="540.9" y="1129" as="targetPoint" />
            <Array as="points" />
          </mxGeometry>
        </mxCell>
        <mxCell id="VuH1P2dGyrRGzV6cBEOp-284" value="1...1" style="edgeLabel;html=1;align=center;verticalAlign=middle;resizable=0;points=[];fontStyle=3" vertex="1" connectable="0" parent="VuH1P2dGyrRGzV6cBEOp-283">
          <mxGeometry x="-0.2584" y="1" relative="1" as="geometry">
            <mxPoint as="offset" />
          </mxGeometry>
        </mxCell>
        <mxCell id="VuH1P2dGyrRGzV6cBEOp-287" value="Text" style="text;html=1;strokeColor=none;fillColor=none;align=center;verticalAlign=middle;whiteSpace=wrap;rounded=0;fontStyle=3" vertex="1" parent="1">
          <mxGeometry x="-1150" y="1130" width="60" height="30" as="geometry" />
        </mxCell>
        <mxCell id="VuH1P2dGyrRGzV6cBEOp-303" value="" style="edgeStyle=orthogonalEdgeStyle;rounded=0;orthogonalLoop=1;jettySize=auto;html=1;entryX=0.5;entryY=0;entryDx=0;entryDy=0;endArrow=none;endFill=0;fontStyle=3;" edge="1" parent="1" target="VuH1P2dGyrRGzV6cBEOp-191">
          <mxGeometry relative="1" as="geometry">
            <mxPoint x="169" y="1570" as="sourcePoint" />
            <mxPoint x="168.84" y="1710" as="targetPoint" />
            <Array as="points" />
          </mxGeometry>
        </mxCell>
        <mxCell id="VuH1P2dGyrRGzV6cBEOp-191" value="" style="shape=rhombus;perimeter=rhombusPerimeter;whiteSpace=wrap;html=1;align=center;fontSize=12;fontStyle=3" vertex="1" parent="1">
          <mxGeometry x="144.5" y="1660" width="50" height="40" as="geometry" />
        </mxCell>
      </root>
    </mxGraphModel>
  </diagram>
</mxfile>
